<?xml version="1.0" standalone="no"?>
<!DOCTYPE svg PUBLIC "-//W3C//DTD SVG 20010904//EN"
 "http://www.w3.org/TR/2001/REC-SVG-20010904/DTD/svg10.dtd">
<svg version="1.0" xmlns="http://www.w3.org/2000/svg"
 width="500.000000pt" height="500.000000pt" viewBox="0 0 500.000000 500.000000"
 preserveAspectRatio="xMidYMid meet">
<metadata>
Created by potrace 1.16, written by Peter Selinger 2001-2019
</metadata>
<g transform="translate(0.000000,500.000000) scale(0.100000,-0.100000)"
fill="#000000" stroke="none">
<path d="M2307 3665 c-48 -17 -85 -50 -103 -92 -19 -45 -17 -80 7 -130 17 -35
40 -56 132 -116 81 -53 118 -84 132 -110 11 -21 22 -37 25 -37 3 0 13 14 22
31 16 27 16 33 3 52 -8 12 -65 56 -127 97 -133 89 -152 111 -152 180 0 62 25
100 80 119 80 28 155 -12 188 -101 l16 -43 -5 49 c-3 27 -5 57 -5 67 0 13 -14
22 -52 34 -63 18 -111 19 -161 0z"/>
<path d="M2502 3034 c-184 -261 -331 -478 -328 -481 3 -4 8 -4 10 -2 18 21
666 948 666 953 0 3 -3 6 -7 6 -5 0 -158 -214 -341 -476z"/>
<path d="M2176 3145 c12 -121 15 -126 88 -146 29 -8 30 -7 11 7 -11 8 -20 18
-20 22 0 4 -12 23 -26 42 -15 19 -34 55 -42 80 l-16 45 5 -50z"/>
<path d="M2777 3150 c23 -5 51 -14 62 -20 28 -14 67 -69 75 -104 11 -45 15
-26 8 39 -6 53 -10 61 -36 73 -15 8 -56 16 -90 18 -56 3 -58 3 -19 -6z"/>
<path d="M2595 2949 c18 -55 49 -84 161 -152 121 -72 166 -155 131 -239 -19
-45 -54 -69 -111 -75 -85 -10 -158 47 -192 149 l-14 43 6 -70 c8 -100 9 -103
66 -120 127 -37 248 -2 293 86 23 43 19 120 -8 160 -28 42 -110 101 -300 218
l-39 23 7 -23z"/>
<path d="M1716 1973 c-3 -3 -6 -39 -6 -80 0 -58 3 -73 15 -73 9 0 15 9 15 23
0 13 6 29 12 35 10 10 19 5 44 -25 39 -47 57 -37 20 11 -14 19 -26 38 -26 41
0 3 12 22 26 41 37 48 14 42 -35 -8 l-41 -43 0 37 c0 36 -11 54 -24 41z"/>
<path d="M1967 1973 c-4 -3 -7 -39 -7 -80 l0 -73 60 0 c33 0 60 4 60 10 0 6
-20 10 -45 10 -41 0 -45 2 -45 25 0 22 4 25 35 25 19 0 35 5 35 10 0 6 -16 10
-35 10 -28 0 -35 4 -35 20 0 17 7 20 40 20 29 0 40 4 40 15 0 11 -12 15 -48
15 -27 0 -52 -3 -55 -7z"/>
<path d="M2182 1969 c46 -115 62 -149 72 -149 15 0 70 134 63 152 -4 11 -17
-13 -55 -106 -6 -15 -13 -6 -33 44 -13 35 -31 66 -38 68 -9 3 -12 0 -9 -9z"/>
<path d="M2446 1973 c-3 -3 -6 -39 -6 -80 0 -58 3 -73 15 -73 12 0 15 15 15
74 0 69 -8 95 -24 79z"/>
<path d="M2607 1974 c-4 -4 -7 -40 -7 -81 0 -57 3 -73 14 -73 11 0 16 15 18
52 l3 53 38 -53 c21 -28 43 -52 48 -52 5 0 9 36 9 81 0 51 -4 78 -10 74 -5 -3
-10 -30 -10 -58 l-1 -52 -22 30 c-41 56 -72 87 -80 79z"/>
<path d="M3016 1973 c-3 -3 -6 -39 -6 -80 0 -58 3 -73 15 -73 10 0 15 11 15
35 0 34 1 35 40 35 39 0 40 -1 40 -35 0 -25 4 -35 15 -35 13 0 15 13 13 75 -3
76 -20 107 -26 48 -3 -31 -6 -33 -43 -33 -37 0 -39 2 -39 29 0 30 -12 46 -24
34z"/>
<path d="M3275 1839 c-10 -15 3 -25 16 -12 7 7 7 13 1 17 -6 3 -14 1 -17 -5z"/>
<path d="M1816 1590 c-3 -16 -9 -43 -12 -60 -3 -16 -1 -30 4 -30 5 0 9 6 9 13
0 6 3 33 7 60 8 51 1 66 -8 17z"/>
<path d="M1557 1594 c-12 -12 -8 -22 14 -43 13 -12 19 -26 15 -36 -3 -9 -2
-13 4 -10 13 8 13 42 -1 50 -6 4 -14 16 -18 26 -4 11 -10 17 -14 13z"/>
<path d="M2703 1584 c-3 -8 4 -25 16 -38 12 -12 18 -26 14 -29 -3 -4 -1 -7 5
-7 19 0 14 35 -8 55 -11 10 -17 22 -14 26 3 5 3 9 -1 9 -3 0 -8 -7 -12 -16z"/>
<path d="M2396 1554 c-8 -22 -8 -54 2 -54 4 0 8 16 9 35 2 38 -1 44 -11 19z"/>
<path d="M2520 1554 c0 -8 5 -12 10 -9 6 4 8 11 5 16 -9 14 -15 11 -15 -7z"/>
<path d="M3057 1563 c-9 -9 -9 -63 1 -63 4 0 7 16 8 35 1 38 0 38 -9 28z"/>
<path d="M3180 1554 c0 -8 5 -12 10 -9 6 4 8 11 5 16 -9 14 -15 11 -15 -7z"/>
<path d="M1678 1535 c-3 -14 -1 -28 3 -31 5 -3 9 9 9 25 0 38 -6 40 -12 6z"/>
<path d="M1716 1544 c-8 -22 -7 -44 2 -44 4 0 9 14 10 30 3 33 -2 39 -12 14z"/>
<path d="M1848 1537 c-3 -19 -2 -25 4 -19 6 6 8 18 6 28 -3 14 -5 12 -10 -9z"/>
<path d="M1940 1553 c-1 -5 -5 -27 -9 -51 -5 -24 -5 -40 -1 -35 10 10 24 93
16 93 -3 0 -6 -3 -6 -7z"/>
<path d="M2026 1544 c-8 -22 -8 -44 2 -44 4 0 8 14 9 30 2 33 -2 38 -11 14z"/>
<path d="M2067 1553 c-4 -3 -7 -18 -6 -32 1 -26 1 -25 10 3 9 31 7 41 -4 29z"/>
<path d="M2181 1544 c0 -11 3 -14 6 -6 3 7 2 16 -1 19 -3 4 -6 -2 -5 -13z"/>
<path d="M2302 1530 c-1 -16 1 -30 5 -30 5 0 9 14 10 30 1 17 -1 30 -5 30 -4
0 -9 -13 -10 -30z"/>
<path d="M2497 1553 c-9 -9 -9 -53 1 -53 4 0 7 14 7 30 0 17 0 30 -1 30 0 0
-4 -3 -7 -7z"/>
<path d="M2837 1528 c8 -44 13 -48 13 -10 0 17 -4 34 -10 37 -6 4 -7 -6 -3
-27z"/>
<path d="M2865 1550 c3 -5 8 -10 11 -10 2 0 4 5 4 10 0 6 -5 10 -11 10 -5 0
-7 -4 -4 -10z"/>
<path d="M3157 1553 c-9 -9 -9 -53 1 -53 4 0 7 14 7 30 0 17 0 30 -1 30 0 0
-4 -3 -7 -7z"/>
<path d="M3266 1534 c-4 -14 -5 -29 -2 -31 3 -3 8 7 12 21 3 15 4 29 1 32 -2
3 -8 -7 -11 -22z"/>
<path d="M3301 1528 c0 -28 2 -30 9 -13 12 28 12 45 0 45 -5 0 -10 -15 -9 -32z"/>
<path d="M3342 1530 c0 -19 2 -27 5 -17 2 9 2 25 0 35 -3 9 -5 1 -5 -18z"/>
<path d="M2151 1534 c0 -11 3 -14 6 -6 3 7 2 16 -1 19 -3 4 -6 -2 -5 -13z"/>
<path d="M2950 1542 c0 -5 7 -15 15 -22 8 -7 15 -8 15 -2 0 5 -7 15 -15 22 -8
7 -15 8 -15 2z"/>
<path d="M3430 1542 c0 -5 7 -15 15 -22 8 -7 15 -8 15 -2 0 5 -7 15 -15 22 -8
7 -15 8 -15 2z"/>
<path d="M2260 1515 c0 -8 4 -15 10 -15 5 0 7 7 4 15 -4 8 -8 15 -10 15 -2 0
-4 -7 -4 -15z"/>
<path d="M1540 1510 c0 -5 5 -10 11 -10 5 0 7 5 4 10 -3 6 -8 10 -11 10 -2 0
-4 -4 -4 -10z"/>
<path d="M2690 1510 c0 -5 5 -10 11 -10 5 0 7 5 4 10 -3 6 -8 10 -11 10 -2 0
-4 -4 -4 -10z"/>
<path d="M2145 1489 c-4 -12 -2 -26 3 -31 8 -8 9 -4 5 11 -6 25 12 28 26 4 9
-15 10 -15 11 -2 0 16 -18 39 -31 39 -4 0 -11 -9 -14 -21z"/>
</g>
</svg>
